<svg version="1.1" xmlns="http://www.w3.org/2000/svg" width="640pt" height="640pt" viewBox="0 0 6400 6400" xmlns:xlink="http://www.w3.org/1999/xlink">
  <rect width="100%" height="100%" fill="#fff"/>
  <g fill="#1877F2" transform="scale(0.9)" transform-origin="3200 3200">
    <path d="M-1600 3200v4800h9600v-9600h-9600v4800zM2870 973c14 15 20 181 24 618 5 328 11 612 15 630 8 39 59 58 89 34 19-16 22-114 22-634 0-552 3-618 26-644 30-33 40-33 70-3 21 20 24 99 24 642 0 539 3 623 23 639 18 15 31 15 60 3l37-18v-628c0-588 2-632 27-645 17-9 36-9 53 0 24 13 25 63 25 630 0 396 6 625 15 645 18 33 63 37 87 9 11-11 20-249 29-639 12-611 12-621 43-642 63-41 77-2 87 261l33 708c26 513 23 546-51 682a495 495 0 0 1-232 204l-71 32 8 138 15 381 9 244h-275l11-387 10-385-72-29c-198-79-315-289-297-526 5-50 21-363 36-695 20-399 35-613 47-627 22-27 49-27 73 2zm1497 586c108 116 197 258 245 396 27 75 34 131 34 248 2 273-58 376-447 772a4669 4669 0 0 0-367 413l-96 135 10-66c18-123 72-249 255-609 194-380 263-563 305-795 27-161 19-342-23-492-16-56-24-101-19-101 6 0 52 45 103 99zm-2298 149c-60 175-57 435 6 624 42 121 149 333 254 501 178 282 259 457 279 600l12 75-90-120a2403 2403 0 0 0-444-434c-225-178-323-321-359-519-39-225 72-522 272-729 43-45 82-79 87-75 3 3-5 38-17 77zm2960 511c141 284 120 558-69 869-123 201-170 291-170 325 0 23 14 27 80 27 169-1 313-129 379-337l20-60v105c1 180-81 345-216 435-57 37-66 39-173 27-61-6-219-12-349-12-263 0-240 9-258-116-14-97 16-241 72-357 34-70 79-126 160-202 260-243 315-306 363-408 39-83 50-125 54-230 3-70-1-157-10-195l-15-67 43 52c24 29 63 95 89 144zm-3570 89c-11 73-9 129 3 187 34 170 114 270 336 428 153 108 205 165 268 289 44 87 66 242 48 336l-9 51-222-1c-121 0-276 6-343 13-117 12-126 12-189-25a492 492 0 0 1-219-431l1-112 26 84a527 527 0 0 0 183 264c43 28 84 40 163 46 75 5 105 2 105-10 0-38-46-123-148-281-131-196-167-303-167-480a666 666 0 0 1 174-466c3 1-1 51-10 108zm3451 1438c0 45-79 275-130 377a1896 1896 0 0 1-798 819c-95 49-131 76-144 111-11 24-17 49-14 54 3 6 36 15 74 19 37 6 67 17 67 23 0 25-103 31-600 40-474 9-888-6-933-33-24-15 26-33 98-34 57-2 63-11 46-74-7-24-42-51-117-88a2013 2013 0 0 1-717-627c-120-182-252-485-252-579 0-27 50-29 1710-29 1484 0 1710 3 1710 21z"/>
    <path d="M1663 3901c16 70 120 277 184 370 473 687 1320 929 2036 582 397-193 738-576 855-960l9-33H1652l11 41z"/>
  </g>
</svg>
